<?xml version="1.0" encoding="utf-8"?>
<!-- Generator: Adobe Illustrator 24.3.0, SVG Export Plug-In . SVG Version: 6.00 Build 0)  -->
<svg version="1.1" id="Layer_1" xmlns="http://www.w3.org/2000/svg" xmlns:xlink="http://www.w3.org/1999/xlink" x="0px" y="0px"
	 viewBox="0 0 704.4 635" style="enable-background:new 0 0 704.4 635;" xml:space="preserve">
<style type="text/css">
	.st0{fill:#E6E6E6;}
	.st1{fill:#FFFFFF;}
	.st2{fill:#CCCCCC;}
	.st3{fill:#0D6EFD;}
	.st4{fill:#3F3D56;}
	.st5{fill:#A0616A;}
	.st6{fill:#198754;}
	.st7{fill:#2F2E41;}
	.st8{fill:#FFB8B8;}
</style>
<path class="st0" d="M437.6,369h-258c-18.2,0-33-14.8-33-33V33c0-18.2,14.8-33,33-33h240l51,40.6V336
	C470.6,354.2,455.8,369,437.6,369z"/>
<path class="st1" d="M179.6,9.5c-13,0-23.5,10.5-23.5,23.5v303c0,13,10.5,23.5,23.5,23.5h258c13,0,23.5-10.5,23.5-23.5V45.2
	L416.3,9.5H179.6z"/>
<path class="st2" d="M387.5,97.6H270c-3,0-5.5-2.5-5.5-5.5c0-3,2.5-5.5,5.5-5.5c0,0,0,0,0,0h117.5c3,0,5.5,2.5,5.5,5.5
	C393,95.1,390.5,97.6,387.5,97.6C387.5,97.6,387.5,97.6,387.5,97.6z"/>
<path class="st2" d="M410.1,116.2H270c-3,0-5.5-2.5-5.5-5.5c0-3,2.5-5.5,5.5-5.5c0,0,0,0,0,0h140.1c3,0,5.5,2.5,5.5,5.5
	C415.6,113.7,413.2,116.1,410.1,116.2C410.1,116.2,410.1,116.2,410.1,116.2z"/>
<path class="st2" d="M387.5,180.7H270c-3,0-5.5-2.5-5.5-5.5c0-3,2.5-5.5,5.5-5.5c0,0,0,0,0,0h117.5c3,0,5.5,2.5,5.5,5.5
	C393,178.3,390.5,180.7,387.5,180.7C387.5,180.7,387.5,180.7,387.5,180.7z"/>
<path class="st2" d="M410.1,199.3H270c-3,0-5.5-2.5-5.5-5.5c0-3,2.5-5.5,5.5-5.5c0,0,0,0,0,0h140.1c3,0,5.5,2.5,5.5,5.5
	C415.6,196.8,413.2,199.3,410.1,199.3C410.1,199.3,410.1,199.3,410.1,199.3z"/>
<path class="st2" d="M387.5,263.8H270c-3,0-5.5-2.5-5.5-5.5c0-3,2.5-5.5,5.5-5.5c0,0,0,0,0,0h117.5c3,0,5.5,2.5,5.5,5.5
	C393,261.4,390.5,263.8,387.5,263.8C387.5,263.8,387.5,263.8,387.5,263.8z"/>
<path class="st2" d="M410.1,282.4H270c-3,0-5.5-2.5-5.5-5.5c0-3,2.5-5.5,5.5-5.5h140.1c3,0,5.5,2.5,5.5,5.5
	C415.6,279.9,413.2,282.4,410.1,282.4C410.1,282.4,410.1,282.4,410.1,282.4z"/>
<circle id="b6fa6563-5e20-492f-ac6f-1d924df782c1" class="st3" cx="221.1" cy="101.4" r="19.4"/>
<path id="bcd12bac-9f30-4deb-ae50-48c1cb737c9b-2797" class="st1" d="M219.1,108.8c-0.4,0-0.9-0.1-1.2-0.4l0,0l-4.6-3.5
	c-0.9-0.7-1.1-2-0.4-2.8c0.7-0.9,2-1.1,2.8-0.4l3,2.3l7-9.1c0.7-0.9,2-1.1,2.8-0.4c0,0,0,0,0,0l0,0l0,0.1l0-0.1
	c0.9,0.7,1.1,2,0.4,2.8l-8.2,10.7C220.4,108.5,219.8,108.8,219.1,108.8L219.1,108.8z"/>
<circle id="b95850ed-3210-4af9-b38f-3ce1288a2453" class="st2" cx="223.1" cy="184.5" r="19.4"/>
<circle id="b1885188-7f5c-4441-a082-07b02d322a90" class="st2" cx="221.1" cy="267.6" r="19.4"/>
<path class="st0" d="M469.6,41.9h-39.9c-6.1,0-11-4.9-11-11v0V1.5c0-0.4,0.3-0.7,0.7-0.7c0.2,0,0.3,0.1,0.4,0.1l50.2,39.8
	c0.3,0.2,0.3,0.7,0.1,1C470,41.8,469.8,41.9,469.6,41.9z"/>
<path class="st1" d="M199.3,425.8L46.7,457.9c-9.2,1.9-18.2-3.9-20.1-13.1L0.4,320.5c-1.9-9.2,3.9-18.2,13.1-20.1l152.6-32.2
	c9.2-1.9,18.2,3.9,20.1,13.1l26.2,124.3C214.4,414.8,208.5,423.8,199.3,425.8z"/>
<path class="st4" d="M199.3,425.8L46.7,457.9c-9.2,1.9-18.2-3.9-20.1-13.1L0.4,320.5c-1.9-9.2,3.9-18.2,13.1-20.1l152.6-32.2
	c9.2-1.9,18.2,3.9,20.1,13.1l26.2,124.3C214.4,414.8,208.5,423.8,199.3,425.8z M13.9,302.4c-8.1,1.7-13.3,9.7-11.6,17.8l26.2,124.3
	c1.7,8.1,9.7,13.3,17.8,11.6l152.6-32.2c8.1-1.7,13.3-9.7,11.6-17.8l-26.2-124.3c-1.7-8.1-9.7-13.3-17.8-11.6L13.9,302.4z"/>
<path id="b3d30341-bfe2-418c-85c9-1bd82b5f5e0c-2798" class="st2" d="M156.7,309.2l-77,16.2c-1.4,0.3-2.8-0.5-3.2-1.9
	c-0.4-1.4,0.5-2.8,1.9-3.2c0,0,0.1,0,0.1,0l78.4-16.5C159.9,305.5,158.9,308.7,156.7,309.2L156.7,309.2z"/>
<path id="ba7e3b3b-1e3b-4053-b678-ceb2b593f6ee-2799" class="st2" d="M159.5,322.7l-77,16.2c-1.4,0.3-2.8-0.5-3.2-1.9
	c-0.4-1.4,0.5-2.8,1.9-3.2c0,0,0.1,0,0.1,0l78.4-16.5C162.7,319,161.8,322.2,159.5,322.7L159.5,322.7z"/>
<path id="f6076b75-2d9c-4839-8b09-e00257d358cf-2800" class="st2" d="M67.4,350.2l-23.5,5c-1.6,0.3-3.2-0.7-3.5-2.3l-5.8-27.7
	c-0.3-1.6,0.7-3.2,2.3-3.5l23.5-5c1.6-0.3,3.2,0.7,3.5,2.3l5.8,27.7C70.1,348.3,69,349.8,67.4,350.2z"/>
<path id="acc57b87-b2e4-43d3-aa96-a8e2462d330c-2801" class="st2" d="M165.1,350.4L47.5,375.2c-1.4,0.3-2.8-0.5-3.2-1.9
	c-0.4-1.4,0.5-2.8,1.9-3.2c0,0,0.1,0,0.1,0l119-25.1C168.3,346.8,167.4,350,165.1,350.4L165.1,350.4z"/>
<path id="e5415755-f7b6-4857-8e09-1413b7f93e97-2802" class="st2" d="M168,364L50.4,388.7c-1.4,0.3-2.8-0.5-3.2-1.9
	c-0.4-1.4,0.5-2.8,1.9-3.2c0,0,0.1,0,0.1,0l119-25.1C171.2,360.3,170.2,363.5,168,364z"/>
<path id="afce3f4d-2700-4434-8207-f3b7a686e1c3-2803" class="st2" d="M170.8,377.5L53.2,402.2c-1.4,0.3-2.8-0.5-3.2-1.9
	c-0.4-1.4,0.5-2.8,1.9-3.2c0,0,0.1,0,0.1,0l119-25.1C174,373.8,173.1,377,170.8,377.5L170.8,377.5z"/>
<path id="abb1f551-863d-408b-9aec-d87e952e72e4-2804" class="st2" d="M173.7,391L56.1,415.8c-1.4,0.3-2.8-0.5-3.2-1.9
	c-0.4-1.4,0.5-2.8,1.9-3.2c0,0,0.1,0,0.1,0l119-25.1C176.9,387.3,175.9,390.5,173.7,391L173.7,391z"/>
<path id="bbed1b24-9150-4534-8e9c-e5347be55157-2805" class="st2" d="M176.5,404.5L58.9,429.3c-1.4,0.3-2.8-0.5-3.2-1.9
	c-0.4-1.4,0.5-2.8,1.9-3.2c0,0,0.1,0,0.1,0l119-25.1C179.7,400.8,178.8,404,176.5,404.5L176.5,404.5z"/>
<path class="st5" d="M197.3,342.6c-0.3,0.5-0.5,1-0.7,1.5l-48.1,11.9l-8.4-8.7l-14.7,10.9l13.3,16.8c2.2,2.8,6,3.8,9.3,2.4
	l52.2-21.3c4.7,3.4,11.2,2.4,14.7-2.2c3.4-4.7,2.4-11.2-2.2-14.7c-4.7-3.4-11.2-2.4-14.7,2.2C197.7,341.9,197.5,342.2,197.3,342.6
	L197.3,342.6z"/>
<path class="st5" d="M33,448.9c5.7-1.8,8.8-7.8,7.1-13.4c-0.2-0.6-0.4-1.2-0.7-1.8l33.1-92.1l-23-4.1l-25.3,91.8
	c-5.1,3.1-6.8,9.7-3.7,14.8C23,448.5,28.2,450.4,33,448.9L33,448.9z"/>
<path class="st6" d="M68.3,358l-22.7-8.7c-2.5-1-3.7-3.7-2.8-6.2c0.1-0.2,0.2-0.4,0.3-0.6L55,321.3c2.7-6.9,10.4-10.3,17.3-7.6
	c6.9,2.7,10.3,10.4,7.6,17.3l-5.3,23.6c-0.6,2.6-3.2,4.2-5.7,3.7C68.7,358.2,68.5,358.1,68.3,358L68.3,358z"/>
<polygon class="st5" points="119.5,621.8 131.8,621.8 137.6,574.5 119.5,574.5 "/>
<path class="st7" d="M116.4,617.8l24.1,0h0c8.5,0,15.4,6.9,15.4,15.4c0,0,0,0,0,0v0.5l-39.5,0L116.4,617.8z"/>
<polygon class="st5" points="50.5,621.8 62.8,621.8 68.6,574.5 50.5,574.5 "/>
<path class="st7" d="M47.4,617.8l24.1,0h0c8.5,0,15.4,6.9,15.4,15.4c0,0,0,0,0,0v0.5l-39.5,0L47.4,617.8z"/>
<path class="st7" d="M63.4,602.7H47.9c-2.5,0-4.5-2-4.5-4.5c0-0.1,0-0.1,0-0.2l7.4-158.3l0.5,0l74.9-2l14.7,158.4
	c0.2,2.5-1.6,4.7-4.1,4.9c0,0,0,0-0.1,0l-17.4,1.4c-2.3,0.2-4.3-1.4-4.8-3.6L92.2,486.1c-0.1-0.7-0.8-1.2-1.5-1.2h0
	c-0.7,0-1.3,0.5-1.5,1.2l-21.4,113C67.4,601.2,65.5,602.7,63.4,602.7z"/>
<circle class="st5" cx="91.8" cy="273.9" r="24.6"/>
<path class="st6" d="M83.6,458.2c-11.7,0-23.7-3.1-33.7-12.2c-1.1-1-1.6-2.4-1.5-3.8c1.1-9.6,6.2-59.1,3.3-92.1
	c-1.2-12.5,3.6-24.9,13-33.3c9.1-8.4,21.7-12.1,34-9.8h0c0.3,0.1,0.6,0.1,0.9,0.2c19.7,3.8,33.3,22,31.8,42.3
	c-2.3,29.7-4.3,69.8-1.1,92.5c0.3,1.9-0.7,3.8-2.4,4.6C120.6,450.2,102.5,458.2,83.6,458.2z"/>
<path class="st6" d="M115.6,359.8c-1.2-0.8-1.9-2-2.1-3.4l-3-24c-2-7.1,2.2-14.5,9.3-16.5c7.1-2,14.4,2.1,16.5,9.2l9.9,22.2
	c1.1,2.4,0,5.3-2.4,6.4c-0.2,0.1-0.4,0.2-0.7,0.2l-23.4,6.5C118.2,360.8,116.8,360.5,115.6,359.8z"/>
<path class="st7" d="M83.2,298.1c-2.3,0-4.6-0.4-6.8-1.2c-1-0.4-1.9-0.7-2.9-1c-8.4-3.2-13.9-12.2-14.1-21.2s4.5-17.7,11.4-23.5
	s15.9-8.7,24.8-9.4c9.7-0.7,20.5,1.7,25.9,9.8c1.4,2.1,2.4,4.7,1.6,7.3c-0.3,0.8-0.7,1.5-1.3,2c-2.4,2.1-4.8,0.5-7.3,0.4
	c-3.4-0.2-6.4,2.5-7.5,5.7s-0.6,6.7,0.3,10c0.7,2,1.1,4,1.3,6.1c0.1,2.1-0.8,4.1-2.5,5.4c-2.1,1.3-4.9,0.5-7-0.7s-3.9-3-6.2-4
	s-5.3-0.7-6.7,1.3c-0.4,0.8-0.7,1.6-0.8,2.4C84.1,293,84.4,292.7,83.2,298.1L83.2,298.1z"/>
<path class="st2" d="M191.7,635H1.7c-0.6,0-1-0.4-1-1s0.4-1,1-1h190c0.6,0,1,0.4,1,1S192.2,635,191.7,635z"/>
<path class="st1" d="M678,428.6L542,504.9c-8.2,4.6-18.5,1.7-23.1-6.5l-62.1-110.8c-4.6-8.2-1.7-18.5,6.5-23.1l136.1-76.3
	c8.2-4.6,18.5-1.7,23.1,6.5l62.1,110.8C689.1,413.7,686.2,424,678,428.6z"/>
<path class="st4" d="M678,428.6L542,504.9c-8.2,4.6-18.5,1.7-23.1-6.5l-62.1-110.8c-4.6-8.2-1.7-18.5,6.5-23.1l136.1-76.3
	c8.2-4.6,18.5-1.7,23.1,6.5l62.1,110.8C689.1,413.7,686.2,424,678,428.6z M464.2,366.3c-7.2,4.1-9.8,13.2-5.7,20.4l62.1,110.8
	c4.1,7.2,13.2,9.8,20.4,5.7L677,426.9c7.2-4.1,9.8-13.2,5.7-20.4l-62.1-110.8c-4.1-7.2-13.2-9.8-20.4-5.7L464.2,366.3z"/>
<path id="b4188fdd-8694-46fd-b6a9-2365408da1f7-2806" class="st2" d="M602.4,330.1l-68.7,38.5c-1.2,0.7-2.8,0.4-3.6-0.8
	c-0.8-1.2-0.4-2.9,0.8-3.6c0,0,0.1,0,0.1-0.1l69.9-39.2C604.4,325.7,604.4,329,602.4,330.1L602.4,330.1z"/>
<path id="e79bc6ad-6d6d-496e-bd80-f918a84d8140-2807" class="st2" d="M609.2,342.2l-68.7,38.5c-1.2,0.7-2.8,0.4-3.6-0.8
	c-0.8-1.2-0.4-2.9,0.8-3.6c0,0,0.1,0,0.1-0.1l69.9-39.2C611.2,337.7,611.2,341.1,609.2,342.2L609.2,342.2z"/>
<path id="b0898467-4323-4072-9ee9-29d386bbe07d-2808" class="st2" d="M529.5,395.9l-21,11.8c-1.4,0.8-3.2,0.3-4-1.1l-13.9-24.7
	c-0.8-1.4-0.3-3.2,1.1-4l21-11.8c1.4-0.8,3.2-0.3,4,1.1l13.9,24.7C531.5,393.3,531,395.1,529.5,395.9L529.5,395.9z"/>
<path id="aea6c33f-bf9b-47d5-9d2e-017fc614339c-2809" class="st2" d="M622.8,367L518,425.7c-1.2,0.7-2.8,0.4-3.6-0.8
	c-0.8-1.2-0.4-2.9,0.8-3.6c0,0,0.1,0,0.1-0.1l106-59.5C624.8,362.5,624.8,365.8,622.8,367z"/>
<path id="b16b06d0-f954-457b-b4c1-332719c9f6d6-2810" class="st2" d="M629.6,379l-104.8,58.8c-1.2,0.7-2.8,0.4-3.6-0.8
	c-0.8-1.2-0.4-2.9,0.8-3.6c0,0,0.1,0,0.1-0.1l106-59.5C631.6,374.5,631.6,377.9,629.6,379L629.6,379z"/>
<path id="b3c0d144-cc2c-4ac0-a007-a1ff15c76ba0-2811" class="st2" d="M636.3,391.1l-104.8,58.8c-1.2,0.7-2.8,0.4-3.6-0.8
	c-0.8-1.2-0.4-2.9,0.8-3.6c0,0,0.1,0,0.1-0.1l106-59.5C638.3,386.6,638.3,389.9,636.3,391.1L636.3,391.1z"/>
<path id="b05e8afe-5132-428a-bb53-4b9505cb52a3-2812" class="st2" d="M643.1,403.1l-104.8,58.8c-1.2,0.7-2.8,0.4-3.6-0.8
	c-0.8-1.2-0.4-2.9,0.8-3.6c0,0,0.1,0,0.1-0.1l106-59.5C645.1,398.6,645.1,402,643.1,403.1L643.1,403.1z"/>
<path id="a26c59cb-bc72-4a1e-9571-41d1cd64f8ea-2813" class="st2" d="M649.9,415.1l-104.8,58.8c-1.2,0.7-2.8,0.4-3.6-0.8
	c-0.8-1.2-0.4-2.9,0.8-3.6c0,0,0.1,0,0.1-0.1l106-59.5C651.8,410.7,651.9,414,649.9,415.1L649.9,415.1z"/>
<path class="st8" d="M631.6,460.3c2.2-4.8,0-10.4-4.7-12.5c-0.5-0.2-1-0.4-1.6-0.6l-2.8-33.5l-13.7,10.8l4.8,30.1
	c-1,5.2,2.5,10.1,7.6,11.1C625.5,466.5,629.8,464.3,631.6,460.3z"/>
<path class="st6" d="M622.7,443.7l-11.4,1.4c-2.3,0.3-4.4-1.4-4.7-3.7c0-0.1,0-0.2,0-0.3l-1.7-38.4l-21.6-58.9
	c-1.8-3.7-1.5-8.1,0.6-11.6c0.5-0.8,1.1-1.6,1.8-2.3c2.7-2.9,6.6-4.3,10.6-3.8c4,0.5,7.6,3,9.5,6.6l14.1,29.5
	c5.9,12.3,8.7,25.9,8.1,39.6l-1.6,38C626.3,441.7,624.8,443.4,622.7,443.7L622.7,443.7z"/>
<polygon class="st8" points="663.1,609.7 652.6,614.3 629.7,575.8 645.3,569 "/>
<path class="st7" d="M670.3,618.7l-34,14.9l-0.2-0.4c-3.2-7.3,0.1-15.8,7.4-19.1c0,0,0,0,0,0l0,0l20.8-9.1L670.3,618.7z"/>
<polygon class="st8" points="521.4,622.5 509.9,622.5 504.4,578 521.4,578 "/>
<path class="st7" d="M524.4,633.7l-37.2,0v-0.5c0-8,6.5-14.5,14.5-14.5c0,0,0,0,0,0h0l22.7,0L524.4,633.7z"/>
<path class="st7" d="M633.7,607.3L569.4,464c-0.3-0.7-1.1-1-1.9-0.7c-0.4,0.2-0.7,0.5-0.8,0.9l-39.1,138.4c-0.5,2-2.4,3.3-4.5,3.1
	l-21.4-2.1c-2.3-0.2-4-2.3-3.8-4.6c6.8-84.5,17.5-164.3,49.6-216.5l0.2-0.3l48.5,9.5l64.8,206.4c0.7,2.2-0.6,4.5-2.8,5.3l-19.5,6.3
	C636.8,610.3,634.5,609.3,633.7,607.3L633.7,607.3z"/>
<circle class="st8" cx="571.2" cy="286" r="23.1"/>
<path class="st6" d="M544.6,386.5l-0.3-0.1l-0.1-0.3c-3.1-13.1-3.2-27.5-0.2-42.6c3.1-16,17.2-27.4,33.5-27.1l0,0
	c17.7,0.4,32.1,14.5,32.8,32.2c1,26-9.6,48.6-9.8,48.8l-0.2,0.3L544.6,386.5z"/>
<path class="st8" d="M482.7,430.4c5.2-0.8,8.7-5.6,8-10.7c-0.1-0.6-0.2-1.1-0.4-1.6l26.6-20.5l-16.5-5.7l-22.7,20.4
	c-4.9,2-7.2,7.5-5.2,12.4C474.1,428.7,478.4,431.1,482.7,430.4L482.7,430.4z"/>
<path class="st6" d="M497.2,414.9c-1.8,1.1-4.1,0.7-5.4-1l-7.3-8.8c-1.5-1.8-1.2-4.5,0.6-6c0.1-0.1,0.2-0.1,0.3-0.2l31.4-22.2
	l37.9-50.1c2.2-3.5,6-5.6,10.1-5.7c1,0,2,0.1,2.9,0.3l0,0c3.9,0.7,7.2,3.3,8.9,6.8c1.7,3.7,1.6,8-0.4,11.5L548,385l-0.1,0.1
	L497.2,414.9z"/>
<path class="st7" d="M575.4,284.6c-1.7-2.8-5.5-3.6-8.7-3.3s-6.4,1.5-9.7,1.4c-9.1-0.1-16.1-11.2-12.3-19.4
	c3.1-6.8,11-9.7,18.1-12.1c14.9-4.9,31.9-9.6,45.4-1.7c8.7,5.3,13.9,14.9,13.6,25.1c-0.3,6.2-2.7,12.7-0.7,18.6
	c2.3,6.8,9.7,10.5,16.7,12.3c12.3,3.1,25.2,2.6,37.5,5.4s25,10.2,28.3,22.4c2.2,8-0.1,16.6-3.9,24c-15.6,30.6-53.1,42.8-83.7,27.2
	c-1.1-0.5-2.1-1.1-3.1-1.7c-14.9-8.7-25.7-23.4-32.1-39.4c-3.6-9.3-6.2-19.1-7.6-29c-1.4-9.3-0.2-18.7,2.4-27.7
	C575.8,285.9,575.7,285.2,575.4,284.6z"/>
<path class="st2" d="M658.7,635h-190c-0.6,0-1-0.4-1-1s0.4-1,1-1h190c0.6,0,1,0.4,1,1S659.2,635,658.7,635z"/>
</svg>
